# xmcd CD database file
# Copyright (C) 1997 Ti Kan
# 
# Track frame offsets:
#     183
#     14120
#     27883
#     46420
#     58908
#     76920
#     90608
#     106733
#     122395
#     137495
#     155358
#     177170
#     187328
#     203258
#     216783
#     238033
# 
# Disc length: 3508 seconds
# 
# Revision: 1
# Processed by: cddbd v1.4b41PL1 Copyright (c) Steve Scherf et al.
# Submitted via: DiscPlay 4.0.4
# 
DISCID=d00db210
DTITLE=Varios - Rock Nacional - La colecci n Vol 35
DYEAR=1900
DGENRE=
TTITLE0=Contra todos los males de este mundo - Spinetta Jade
TTITLE1=Tierra sagrada - Man Ray
TTITLE2=Mariposa de madera - Miguel Abuelo
TTITLE3=El Doctor - Virus
TTITLE4=Playas oscuras - Los Visitantes
TTITLE5=Completamente nervioso - Aeroblus
TTITLE6=Una peque a muerte - Luca Prodan
TTITLE7=Desconf o de la vida - Celeste Carballo
TTITLE8=Canci n de la vida - Litto Nebbia
TTITLE9=Escondo mis ojos al sol - Nito Mestre
TTITLE10=Blues Latino - Vargas Blues band
TTITLE11=Bikini a lunares amarillos diminutos - Viuda e hijas de Roque Enrol
TTITLE12=Destiempo - Ruben Goldin
TTITLE13=Pele ndose - Pastoral
TTITLE14=Y dale alegr a a mi coraz n - Mercedes Sosa
TTITLE15=Como un Angel - Raul Porchetto
EXTD=
EXTT0=
EXTT1=
EXTT2=
EXTT3=
EXTT4=
EXTT5=
EXTT6=
EXTT7=
EXTT8=
EXTT9=
EXTT10=
EXTT11=
EXTT12=
EXTT13=
EXTT14=
EXTT15=
PLAYORDER=
